<svg xmlns="http://www.w3.org/2000/svg" width="24" height="36" viewBox="0 0 24 36" fill="none">
  <!-- Lid -->
  <rect x="5" y="1" width="14" height="2.5" rx="0.5" fill="#3d4550"/>
  
  <!-- Main jar body -->
  <rect x="4" y="3.5" width="16" height="28" rx="1" fill="#9aa5b1"/>
  
  <!-- Jar darker shade -->
  <rect x="12" y="3.5" width="7" height="28" fill="#7b8794"/>
  
  <!-- Filter basket inside -->
  <rect x="6" y="6" width="12" height="16" rx="0.5" fill="#6d7a85"/>
  
  <!-- Filter mesh dots -->
  <circle cx="9" cy="10" r="0.5" fill="#5c6670"/>
  <circle cx="12" cy="10" r="0.5" fill="#5c6670"/>
  <circle cx="15" cy="10" r="0.5" fill="#5c6670"/>
  <circle cx="9" cy="14" r="0.5" fill="#5c6670"/>
  <circle cx="12" cy="14" r="0.5" fill="#5c6670"/>
  <circle cx="15" cy="14" r="0.5" fill="#5c6670"/>
  <circle cx="9" cy="18" r="0.5" fill="#5c6670"/>
  <circle cx="12" cy="18" r="0.5" fill="#5c6670"/>
  <circle cx="15" cy="18" r="0.5" fill="#5c6670"/>
  
  <!-- Coffee concentrate at bottom -->
  <rect x="4.5" y="24" width="15" height="7" rx="0.5" fill="#5c3d2e"/>
  
  <!-- Base -->
  <rect x="3" y="31.5" width="18" height="2.5" rx="0.5" fill="#7b8794"/>
  
  <!-- Spigot -->
  <rect x="18" y="26" width="4" height="2" fill="#3d4550"/>
  <circle cx="22" cy="27" r="1" fill="#5c6670"/>
</svg>
