<svg xmlns="http://www.w3.org/2000/svg" width="24" height="36" viewBox="0 0 24 36" fill="none">
  <!-- Mug beneath -->
  <path d="M6 28 L6 34 Q6 35 7 35 L17 35 Q18 35 18 34 L18 28 Z" fill="#f5f5f5"/>
  
  <!-- Coffee in mug -->
  <path d="M6 31 L6 34 Q6 35 7 35 L17 35 Q18 35 18 34 L18 31 Z" fill="#8B4513"/>
  
  <!-- Mug handle -->
  <path d="M18 29 Q21 29 21 32 Q21 35 18 35" stroke="#e8e8e8" stroke-width="1.5" fill="none"/>
  
  <!-- Clever dripper body - trapezoid -->
  <path d="M4 4 L6 27 L18 27 L20 4 Z" fill="#9aa5b1"/>
  
  <!-- Darker shade -->
  <path d="M12 4 L14 27 L18 27 L20 4 Z" fill="#7b8794"/>
  
  <!-- Top rim -->
  <rect x="3" y="2" width="18" height="2.5" rx="0.5" fill="#7b8794"/>
  
  <!-- Handle on side -->
  <rect x="20" y="10" width="3" height="8" rx="1" fill="#7b8794"/>
  
  <!-- Release switch/lever -->
  <rect x="1" y="22" width="4" height="3" rx="0.5" fill="#3d4550"/>
  <circle cx="2" cy="23.5" r="1" fill="#5c6670"/>
  
  <!-- Dripper bottom valve area -->
  <rect x="9" y="25" width="6" height="2" fill="#6d7a85"/>
  
  <!-- Drip coming out -->
  <ellipse cx="12" cy="28" rx="1" ry="0.5" fill="#8B4513"/>
</svg>
