<svg xmlns="http://www.w3.org/2000/svg" width="24" height="36" viewBox="0 0 24 36" fill="none">
  <!-- Upper globe -->
  <ellipse cx="12" cy="8" rx="6" ry="5" fill="#9aa5b1"/>
  <ellipse cx="14" cy="8" rx="3" ry="5" fill="#7b8794"/>
  
  <!-- Upper globe top opening -->
  <ellipse cx="12" cy="4" rx="2.5" ry="1" fill="#7b8794"/>
  
  <!-- Siphon tube -->
  <rect x="11" y="12" width="2" height="6" fill="#6d7a85"/>
  
  <!-- Filter holder -->
  <ellipse cx="12" cy="18" rx="3" ry="1" fill="#3d4550"/>
  
  <!-- Lower globe -->
  <ellipse cx="12" cy="26" rx="7" ry="7" fill="#9aa5b1"/>
  <ellipse cx="14" cy="26" rx="4" ry="7" fill="#7b8794"/>
  
  <!-- Coffee in lower globe -->
  <path d="M6 28 Q6 32 12 32 Q18 32 18 28 Z" fill="#8B4513" opacity="0.6"/>
  
  <!-- Stand left leg -->
  <path d="M4 20 L3 35 L5 35 L6 22" fill="#3d4550"/>
  
  <!-- Stand right leg -->
  <path d="M20 20 L21 35 L19 35 L18 22" fill="#3d4550"/>
  
  <!-- Stand base -->
  <rect x="2" y="34" width="20" height="1.5" rx="0.5" fill="#3d4550"/>
  
  <!-- Burner -->
  <ellipse cx="12" cy="34" rx="3" ry="1" fill="#5c6670"/>
</svg>
