<svg xmlns="http://www.w3.org/2000/svg" width="24" height="24" viewBox="0 0 24 24" fill="none">
  <!-- Steam -->
  <path d="M8 2 Q9 4 8 5" stroke="#9aa5b1" stroke-width="1.5" stroke-linecap="round"/>
  <path d="M12 1 Q13 3 12 5" stroke="#9aa5b1" stroke-width="1.5" stroke-linecap="round"/>
  <path d="M16 2 Q17 4 16 5" stroke="#9aa5b1" stroke-width="1.5" stroke-linecap="round"/>
  
  <!-- Cup body -->
  <path d="M4 8 L4 19 Q4 22 8 22 L16 22 Q20 22 20 19 L20 8 Z" fill="#9aa5b1"/>
  <path d="M12 8 L12 19 Q12 22 14 22 L16 22 Q20 22 20 19 L20 8 Z" fill="#7b8794"/>
  
  <!-- Coffee inside -->
  <path d="M5 12 L5 19 Q5 21 8 21 L16 21 Q19 21 19 19 L19 12 Z" fill="#8B4513"/>
  
  <!-- Handle -->
  <path d="M20 10 Q23 10 23 14.5 Q23 19 20 19" stroke="#7b8794" stroke-width="2" fill="none"/>
</svg>
