<svg xmlns="http://www.w3.org/2000/svg" width="36" height="24" viewBox="0 0 36 24" fill="none">
  <!-- Handle -->
  <path d="M2 10 Q2 6 6 6 L14 6 Q16 6 16 8 L16 16 Q16 18 14 18 L6 18 Q2 18 2 14 Z" fill="#3d4550"/>
  
  <!-- Handle grip texture -->
  <rect x="4" y="8" width="1" height="8" fill="#2a2d33" rx="0.5"/>
  <rect x="7" y="8" width="1" height="8" fill="#2a2d33" rx="0.5"/>
  <rect x="10" y="8" width="1" height="8" fill="#2a2d33" rx="0.5"/>
  
  <!-- Portafilter neck -->
  <rect x="14" y="9" width="6" height="6" fill="#7b8794"/>
  
  <!-- Basket body -->
  <path d="M20 4 L20 20 L34 17 L34 7 Z" fill="#9aa5b1"/>
  
  <!-- Basket inner -->
  <ellipse cx="27" cy="12" rx="6" ry="7" fill="#7b8794"/>
  
  <!-- Coffee grounds -->
  <ellipse cx="27" cy="12" rx="5" ry="6" fill="#5c4a3d"/>
  
  <!-- Basket rim -->
  <ellipse cx="27" cy="12" rx="6.5" ry="7.5" stroke="#6d7a85" stroke-width="1.5" fill="none"/>
  
  <!-- Spouts -->
  <path d="M26 19 L25 23 L24 23 L25 19" fill="#7b8794"/>
  <path d="M30 19 L31 23 L32 23 L31 19" fill="#7b8794"/>
</svg>
