<svg xmlns="http://www.w3.org/2000/svg" width="24" height="36" viewBox="0 0 24 36" fill="none">
  <!-- Server/carafe body -->
  <path d="M7 22 L6 33 Q6 35 8 35 L16 35 Q18 35 18 33 L17 22 Z" fill="#f5f5f5"/>
  
  <!-- Coffee in server -->
  <path d="M6.5 28 L6 33 Q6 35 8 35 L16 35 Q18 35 18 33 L17.5 28 Z" fill="#8B4513"/>
  
  <!-- Server handle -->
  <path d="M18 24 Q21 24 21 28 Q21 32 18 32" stroke="#e8e8e8" stroke-width="1.8" fill="none"/>
  
  <!-- V60 cone body -->
  <path d="M4 6 L8 21 L16 21 L20 6 Z" fill="#9aa5b1"/>
  
  <!-- V60 inner darker shade -->
  <path d="M12 6 L14.5 21 L16 21 L20 6 Z" fill="#7b8794"/>
  
  <!-- V60 top rim -->
  <rect x="3" y="4" width="18" height="2.5" rx="0.5" fill="#7b8794"/>
  
  <!-- V60 ribs (spiral lines) -->
  <line x1="6" y1="9" x2="9" y2="18" stroke="#7b8794" stroke-width="0.5"/>
  <line x1="8" y1="8" x2="10.5" y2="18" stroke="#7b8794" stroke-width="0.5"/>
  <line x1="10" y1="7" x2="12" y2="18" stroke="#7b8794" stroke-width="0.5"/>
  
  <!-- V60 bottom hole -->
  <ellipse cx="12" cy="21" rx="2" ry="0.8" fill="#3d4550"/>
</svg>
