<svg xmlns="http://www.w3.org/2000/svg" width="36" height="36" viewBox="0 0 36 36" fill="none">
  <!-- Main body -->
  <rect x="4" y="6" width="28" height="24" rx="2" fill="#3d4550"/>
  
  <!-- Top panel -->
  <rect x="4" y="4" width="28" height="4" rx="1" fill="#5c6670"/>
  
  <!-- Cup warmer area -->
  <rect x="6" y="5" width="24" height="2" rx="0.5" fill="#2a2d33"/>
  
  <!-- Group head area -->
  <rect x="10" y="12" width="16" height="6" rx="1" fill="#5c6670"/>
  
  <!-- Portafilter -->
  <path d="M12 18 L12 22 L24 22 L24 18 Z" fill="#7b8794"/>
  <ellipse cx="18" cy="22" rx="6" ry="2" fill="#9aa5b1"/>
  
  <!-- Drip tray -->
  <rect x="6" y="28" width="24" height="3" rx="0.5" fill="#5c6670"/>
  <rect x="8" y="28.5" width="20" height="2" rx="0.3" fill="#2a2d33"/>
  
  <!-- Steam wand -->
  <rect x="28" y="14" width="2" height="10" rx="0.5" fill="#9aa5b1"/>
  <circle cx="29" cy="24" r="1" fill="#7b8794"/>
  
  <!-- Pressure gauge -->
  <circle cx="10" cy="10" r="2.5" fill="#f5f5f5"/>
  <circle cx="10" cy="10" r="2" fill="#2a2d33"/>
  <line x1="10" y1="10" x2="10" y2="8.5" stroke="#8B4513" stroke-width="0.5"/>
  
  <!-- Buttons -->
  <circle cx="26" cy="10" r="1.5" fill="#8B4513"/>
  <circle cx="22" cy="10" r="1" fill="#5c6670"/>
  
  <!-- Cups underneath -->
  <rect x="13" y="24" width="4" height="4" rx="0.5" fill="#f5f5f5"/>
  <rect x="19" y="24" width="4" height="4" rx="0.5" fill="#f5f5f5"/>
</svg>
