<svg xmlns="http://www.w3.org/2000/svg" width="24" height="36" viewBox="0 0 24 36" fill="none">
  <!-- Water reservoir -->
  <path d="M14 1 L14 12 L20 12 L20 1 Z" fill="#7b8794"/>
  <path d="M17 1 L17 12 L20 12 L20 1 Z" fill="#6d7a85"/>
  
  <!-- Reservoir lid -->
  <rect x="13" y="0" width="8" height="1.5" rx="0.5" fill="#5c6670"/>
  
  <!-- Main body/back -->
  <rect x="14" y="12" width="6" height="22" fill="#3d4550"/>
  
  <!-- Warming plate -->
  <rect x="4" y="32" width="14" height="2.5" rx="0.5" fill="#5c6670"/>
  
  <!-- Carafe body -->
  <path d="M5 20 L5 32 L16 32 L16 20 Z" fill="#9aa5b1"/>
  <path d="M11 20 L11 32 L16 32 L16 20 Z" fill="#7b8794"/>
  
  <!-- Coffee in carafe -->
  <path d="M5.5 25 L5.5 31.5 L15.5 31.5 L15.5 25 Z" fill="#8B4513" opacity="0.7"/>
  
  <!-- Carafe handle -->
  <path d="M5 22 Q2 22 2 26 Q2 30 5 30" stroke="#7b8794" stroke-width="1.8" fill="none"/>
  
  <!-- Carafe top/lid -->
  <rect x="4" y="18" width="13" height="2.5" rx="0.5" fill="#3d4550"/>
  
  <!-- Brew basket area -->
  <path d="M6 12 L6 18 L15 18 L15 12 Z" fill="#5c6670"/>
  
  <!-- Drip spout -->
  <rect x="10" y="16" width="2" height="2" fill="#3d4550"/>
  
  <!-- Control button -->
  <circle cx="17" cy="30" r="1.5" fill="#8B4513"/>
</svg>
