<svg xmlns="http://www.w3.org/2000/svg" width="24" height="36" viewBox="0 0 24 36" fill="none">
  <!-- Server beneath -->
  <path d="M6 22 L5 33 Q5 35 7 35 L17 35 Q19 35 19 33 L18 22 Z" fill="#f5f5f5"/>
  
  <!-- Coffee in server -->
  <path d="M5.5 28 L5 33 Q5 35 7 35 L17 35 Q19 35 19 33 L18.5 28 Z" fill="#8B4513"/>
  
  <!-- Server handle -->
  <path d="M19 24 Q22 24 22 28 Q22 32 19 32" stroke="#e8e8e8" stroke-width="1.5" fill="none"/>
  
  <!-- Kalita wave body - flatter than v60 -->
  <path d="M5 8 L7 21 L17 21 L19 8 Z" fill="#9aa5b1"/>
  
  <!-- Darker shade -->
  <path d="M12 8 L14 21 L17 21 L19 8 Z" fill="#7b8794"/>
  
  <!-- Top rim - characteristic wave shape -->
  <rect x="4" y="5.5" width="16" height="3" rx="0.5" fill="#7b8794"/>
  
  <!-- Wave pattern on rim -->
  <path d="M4.5 6.5 Q6 5 7.5 6.5 Q9 8 10.5 6.5 Q12 5 13.5 6.5 Q15 8 16.5 6.5 Q18 5 19.5 6.5" stroke="#6d7a85" stroke-width="0.8" fill="none"/>
  
  <!-- Flat bottom with 3 holes -->
  <rect x="7" y="20" width="10" height="1.5" fill="#6d7a85"/>
  <circle cx="9" cy="21" r="0.8" fill="#3d4550"/>
  <circle cx="12" cy="21" r="0.8" fill="#3d4550"/>
  <circle cx="15" cy="21" r="0.8" fill="#3d4550"/>
</svg>
