<svg xmlns="http://www.w3.org/2000/svg" width="24" height="24" viewBox="0 0 24 24" fill="none">
  <!-- Gear teeth -->
  <path d="M12 2 L14 2 L14.5 4.5 L17 5.5 L19 4 L20.5 5.5 L19 7.5 L20 10 L22 10.5 L22 12.5 L20 13 L19 15.5 L20.5 18 L19 19.5 L17 18 L14.5 19.5 L14 22 L10 22 L9.5 19.5 L7 18 L5 19.5 L3.5 18 L5 15.5 L4 13 L2 12.5 L2 10.5 L4 10 L5 7.5 L3.5 5.5 L5 4 L7 5.5 L9.5 4.5 L10 2 Z" fill="#9aa5b1"/>
  
  <!-- Inner gear -->
  <circle cx="12" cy="12" r="5" fill="#7b8794"/>
  
  <!-- Center hole -->
  <circle cx="12" cy="12" r="2.5" fill="#3d4550"/>
</svg>
