<svg xmlns="http://www.w3.org/2000/svg" width="24" height="36" viewBox="0 0 24 36" fill="none">
  <!-- Lid knob -->
  <ellipse cx="12" cy="3" rx="2" ry="1.5" fill="#3d4550"/>
  
  <!-- Lid -->
  <path d="M7 4 L8 7 L16 7 L17 4 Z" fill="#5c6670"/>
  
  <!-- Upper chamber (collector) -->
  <path d="M6 7 L5 18 L19 18 L18 7 Z" fill="#7b8794"/>
  
  <!-- Upper chamber facets/shine -->
  <path d="M12 7 L11 18 L14 18 L15 7 Z" fill="#6d7a85"/>
  
  <!-- Middle band -->
  <rect x="5" y="17" width="14" height="3" fill="#3d4550"/>
  
  <!-- Lower chamber (boiler) -->
  <path d="M5 20 L6 33 Q6 35 8 35 L16 35 Q18 35 18 33 L19 20 Z" fill="#9aa5b1"/>
  
  <!-- Lower chamber facets -->
  <path d="M12 20 L12.5 33 Q12.5 35 14 35 L16 35 Q18 35 18 33 L19 20 Z" fill="#7b8794"/>
  
  <!-- Handle -->
  <path d="M5 12 Q1 12 1 18 Q1 24 5 24" stroke="#3d4550" stroke-width="2.5" fill="none"/>
  
  <!-- Spout -->
  <path d="M19 10 L22 8 L22 12 L19 14 Z" fill="#5c6670"/>
</svg>
